<svg width="402.000000" height="97.445312" viewBox="0 0 402 97.4453" fill="none" xmlns="http://www.w3.org/2000/svg" xmlns:xlink="http://www.w3.org/1999/xlink">
	<desc>
			Created with Pixso.
	</desc>
	<defs/>
	<path id="Vector" d="M274.72 73.71C274.72 80.54 278.32 82.87 285.06 82.87C291.8 82.87 291.47 89.07 291.47 89.07C291.47 96.23 284.66 97.44 284.66 97.44L276.65 97.44C258.45 97.44 258.92 75.59 258.92 75.59L258.87 9.37C258.87 6.74 259.61 4.61 261.07 3.01C262.55 1.38 264.45 0.57 266.77 0.56C269.08 0.56 270.97 1.38 272.44 3.01C273.92 4.61 274.66 6.74 274.67 9.37L274.67 71.45L274.72 73.71ZM345.27 72.81L362.51 54.54L348.1 39.47C346.37 37.59 345.5 35.68 345.5 33.76C345.5 31.72 346.4 29.93 348.22 28.39C350.03 26.85 352.04 26.08 354.24 26.08C356.61 26.08 358.7 27.11 360.5 29.15L372.45 43.01L384.39 29.15C386.2 27.11 388.28 26.08 390.65 26.08C392.86 26.08 394.87 26.85 396.68 28.39C398.48 29.93 399.38 31.72 399.39 33.76C399.39 35.69 398.52 37.6 396.8 39.47L382.38 54.54L399.63 72.81C401.2 74.4 401.99 76.2 402 78.2C402 80.51 401.22 82.37 399.66 83.79C398.1 85.2 396.08 85.91 393.6 85.91C391.95 85.91 390.63 85.63 389.65 85.08C388.69 84.5 387.64 83.61 386.51 82.39L372.46 66.33L358.41 82.39C357.28 83.61 356.22 84.5 355.27 85.08C354.33 85.63 353.01 85.91 351.31 85.91C348.83 85.91 346.81 85.2 345.26 83.79C343.7 82.37 342.92 80.51 342.92 78.2C342.91 76.2 343.7 74.4 345.27 72.81ZM284.93 63.46L284.93 34.86C284.93 32.25 285.68 30.14 287.17 28.52C288.68 26.89 290.62 26.08 292.98 26.07C295.33 26.07 297.26 26.89 298.76 28.52C300.28 30.13 301.03 32.25 301.03 34.86L301.03 63.15C301.03 66.3 302.05 68.8 304.08 70.63C306.12 72.46 308.57 73.37 311.42 73.37C314.24 73.37 316.67 72.45 318.7 70.6C320.76 68.76 321.79 66.27 321.79 63.14L321.79 34.86C321.79 32.25 322.53 30.14 324.02 28.52C325.53 26.89 327.47 26.08 329.83 26.07C332.19 26.07 334.12 26.89 335.62 28.52C337.13 30.13 337.89 32.25 337.89 34.86L337.89 63.46C337.89 68.15 336.86 72.24 334.81 75.71C332.75 79.19 329.73 81.86 325.75 83.75C321.77 85.63 316.99 86.56 311.42 86.56C303.02 86.56 296.5 84.49 291.86 80.35C287.24 76.22 284.93 70.59 284.93 63.46ZM232.95 77.12L232.95 34.87C232.95 32.26 233.69 30.15 235.15 28.53C236.63 26.9 238.53 26.1 240.84 26.08C243.16 26.08 245.05 26.9 246.52 28.53C248 30.14 248.74 32.26 248.75 34.87L248.75 77.12C248.75 79.71 248 81.84 246.52 83.48C245.06 85.11 243.16 85.92 240.84 85.93C238.53 85.93 236.63 85.12 235.15 83.48C233.68 81.84 232.95 79.72 232.95 77.12ZM240.84 4C243.2 4 245.27 4.88 247.05 6.63C248.84 8.37 249.73 10.39 249.73 12.71C249.73 15.2 248.85 17.35 247.1 19.15C245.37 20.94 243.28 21.83 240.83 21.83C238.48 21.83 236.4 20.92 234.63 19.1C232.84 17.26 231.95 15.12 231.95 12.71C231.95 10.43 232.84 8.41 234.63 6.66C236.43 4.89 238.51 4 240.84 4ZM155.05 77.89L140.95 39.93C139.81 36.77 139.23 34.27 139.23 32.44C139.23 30.66 140 29.16 141.56 27.93C143.13 26.69 145.12 26.07 147.55 26.07C149.54 26.07 151.23 26.65 152.62 27.8C154.01 28.94 154.93 30.46 155.39 32.33L164.98 62.57L174.93 33C176.3 28.38 179.11 26.07 183.33 26.07C187.58 26.07 190.4 28.38 191.77 33L201.5 62.57L211.31 32.33C211.76 30.45 212.68 28.94 214.07 27.8C215.46 26.65 217.16 26.07 219.15 26.07C221.63 26.07 223.63 26.76 225.15 28.14C226.69 29.51 227.46 31.38 227.47 33.76C227.47 34.44 226.94 36.42 225.87 39.69L211.65 77.88C209.62 83.23 206.27 85.91 201.61 85.91C196.81 85.91 193.61 83.45 192.02 78.52L183.48 53L174.67 78.52C173.07 83.45 169.88 85.91 165.09 85.91C160.43 85.91 157.08 83.23 155.05 77.89ZM94.24 50.71L119.79 50.71C119.48 48.36 118.78 46.29 117.68 44.45C116.61 42.63 115.16 41.19 113.32 40.16C111.51 39.12 109.38 38.6 106.94 38.6C104.62 38.6 102.53 39.14 100.7 40.21C98.89 41.27 97.42 42.72 96.28 44.56C95.18 46.4 94.5 48.45 94.24 50.71ZM128.83 61.26L94.57 61.26C95.11 65.02 96.79 67.87 99.61 69.8C102.43 71.74 105.81 72.7 109.75 72.7C112.13 72.7 114.12 72.37 115.72 71.68C117.34 71 119.5 69.95 122.21 68.51C124.91 67.06 126.82 66.34 127.93 66.34C129.63 66.34 131.14 67.06 132.49 68.49C133.86 69.91 134.53 71.45 134.53 73.14C134.53 75.33 133.19 77.47 130.53 79.57C127.85 81.65 124.46 83.34 120.36 84.65C116.27 85.94 112.25 86.58 108.31 86.58C102.4 86.58 97.16 85.27 92.58 82.66C87.99 80.05 84.44 76.41 81.92 71.76C79.41 67.11 78.16 61.9 78.16 56.13C78.16 52.1 78.86 48.24 80.26 44.55C81.66 40.87 83.64 37.59 86.21 34.72C88.77 31.85 91.84 29.59 95.42 27.93C99 26.26 102.84 25.43 106.94 25.43C112.45 25.43 117.41 26.87 121.83 29.75C126.26 32.64 129.7 36.33 132.16 40.85C134.63 45.34 135.87 49.81 135.87 54.24C135.87 58.92 133.52 61.26 128.83 61.26ZM17.64 16.28L17.64 67.78L29.53 67.78C34.42 67.78 38.52 66.67 41.83 64.46C45.17 62.24 47.64 59.21 49.25 55.35C50.86 51.49 51.66 47.17 51.66 42.37C51.66 37.2 50.82 32.66 49.16 28.76C47.51 24.84 44.93 21.78 41.43 19.59C37.93 17.38 33.59 16.27 28.35 16.27L17.64 16.27L17.64 16.28ZM0 75.22L0 9.08C0 6.39 0.84 4.2 2.53 2.54C4.23 0.85 6.41 0 9.05 0L28.62 0C35.12 0 40.96 1.02 46.12 3.05C51.31 5.07 55.67 7.96 59.2 11.72C62.72 15.49 65.41 20.05 67.25 25.42C69.1 30.77 70.03 36.7 70.03 43.21C70.03 49.33 69.08 54.91 67.19 59.96C65.31 65 62.58 69.32 59 72.94C55.43 76.55 51.17 79.31 46.2 81.21C41.24 83.12 35.77 84.07 29.8 84.07L9.28 84.07C6.94 84.07 4.8 83.37 2.86 81.94C0.95 80.5 0 78.25 0 75.22Z" fill="#FF0016" fill-opacity="1.000000" fill-rule="evenodd"/>
</svg>
