<svg width="215" height="86" viewBox="0 0 215 86" fill="none" xmlns="http://www.w3.org/2000/svg">
<path fill-rule="evenodd" clip-rule="evenodd" d="M162.314 53.2529C162.314 55.4831 163.484 56.2454 165.671 56.2454C167.858 56.2454 167.752 58.2682 167.752 58.2682C167.752 60.6054 165.542 60.9999 165.542 60.9999H162.941C157.032 60.9999 157.185 53.8681 157.185 53.8681L157.172 32.2522C157.172 31.3929 157.41 30.7008 157.884 30.1759C158.365 29.6442 158.981 29.3801 159.733 29.3768C160.485 29.3768 161.098 29.6442 161.576 30.1759C162.056 30.7008 162.295 31.3929 162.298 32.2522V52.5173L162.314 53.2529ZM185.212 52.9587L190.809 46.9972L186.13 42.0788C185.57 41.4636 185.288 40.8417 185.288 40.2132C185.288 39.5478 185.58 38.9627 186.17 38.4611C186.756 37.9596 187.409 37.7088 188.125 37.7088C188.894 37.7088 189.57 38.0432 190.156 38.7086L194.033 43.2324L197.91 38.7086C198.497 38.0432 199.173 37.7088 199.942 37.7088C200.657 37.7088 201.31 37.9596 201.897 38.4611C202.483 38.9627 202.775 39.5478 202.778 40.2132C202.778 40.8451 202.496 41.467 201.936 42.0788L197.257 46.9972L202.854 52.9587C203.365 53.4803 203.62 54.0654 203.623 54.7207C203.623 55.473 203.371 56.0816 202.864 56.543C202.357 57.0044 201.704 57.2351 200.899 57.2351C200.362 57.2351 199.935 57.1448 199.617 56.9642C199.305 56.777 198.964 56.4861 198.596 56.0882L194.037 50.8456L189.477 56.0882C189.109 56.4861 188.768 56.777 188.456 56.9642C188.151 57.1448 187.724 57.2351 187.174 57.2351C186.369 57.2351 185.713 57.0044 185.209 56.543C184.702 56.0816 184.45 55.473 184.45 54.7207C184.447 54.0654 184.702 53.4803 185.212 52.9587ZM165.628 49.9094V40.5743C165.628 39.7217 165.87 39.0329 166.354 38.5046C166.844 37.973 167.474 37.7088 168.239 37.7055C169.005 37.7055 169.631 37.973 170.118 38.5046C170.609 39.0295 170.854 39.7217 170.854 40.5743V49.8057C170.854 50.8356 171.185 51.6514 171.845 52.2499C172.504 52.845 173.299 53.1426 174.227 53.1426C175.142 53.1426 175.93 52.8417 176.59 52.2398C177.256 51.638 177.591 50.8255 177.591 49.8024V40.5743C177.591 39.7217 177.833 39.0329 178.316 38.5046C178.807 37.973 179.436 37.7088 180.202 37.7055C180.967 37.7055 181.594 37.973 182.081 38.5046C182.571 39.0295 182.816 39.7217 182.816 40.5743V49.9094C182.816 51.4407 182.482 52.7748 181.816 53.9083C181.15 55.0417 180.169 55.9144 178.876 56.5296C177.584 57.1448 176.033 57.4491 174.227 57.4491C171.5 57.4491 169.383 56.7737 167.878 55.4229C166.377 54.0721 165.628 52.2365 165.628 49.9094ZM148.758 54.3663V40.5776C148.758 39.725 148.997 39.0362 149.471 38.508C149.951 37.9763 150.567 37.7122 151.32 37.7088C152.072 37.7088 152.685 37.9763 153.162 38.508C153.643 39.0329 153.881 39.725 153.884 40.5776V54.3663C153.884 55.2122 153.643 55.9077 153.162 56.4427C152.688 56.9743 152.072 57.2384 151.32 57.2418C150.567 57.2418 149.951 56.9776 149.471 56.4427C148.993 55.9077 148.758 55.2156 148.758 54.3663ZM151.32 30.5002C152.085 30.5002 152.754 30.7877 153.334 31.3595C153.914 31.9279 154.203 32.5866 154.203 33.3422C154.203 34.1547 153.918 34.8568 153.351 35.4453C152.788 36.0304 152.112 36.3213 151.316 36.3213C150.551 36.3213 149.878 36.0237 149.302 35.4286C148.722 34.8267 148.433 34.1313 148.433 33.3422C148.433 32.5999 148.722 31.9413 149.302 31.3695C149.888 30.7911 150.561 30.5002 151.32 30.5002ZM123.475 54.6171L118.898 42.2293C118.527 41.1962 118.338 40.3803 118.338 39.7818C118.338 39.2034 118.59 38.7119 119.097 38.3107C119.604 37.9061 120.25 37.7055 121.039 37.7055C121.685 37.7055 122.235 37.8927 122.686 38.2672C123.137 38.6417 123.435 39.1365 123.584 39.7484L126.696 49.6185L129.926 39.9657C130.37 38.4578 131.282 37.7055 132.654 37.7055C134.032 37.7055 134.947 38.4578 135.391 39.9657L138.549 49.6185L141.733 39.7484C141.879 39.1332 142.177 38.6417 142.631 38.2672C143.082 37.8927 143.632 37.7055 144.278 37.7055C145.083 37.7055 145.733 37.9295 146.226 38.3809C146.727 38.8256 146.975 39.4375 146.979 40.2132C146.979 40.4372 146.806 41.0825 146.458 42.1491L141.846 54.6137C141.186 56.3624 140.099 57.2351 138.585 57.2351C137.028 57.2351 135.99 56.4326 135.474 54.8244L132.7 46.4956L129.844 54.8244C129.323 56.4326 128.286 57.2351 126.732 57.2351C125.221 57.2351 124.134 56.3624 123.475 54.6171ZM103.738 45.7467H112.029C111.93 44.981 111.701 44.3023 111.346 43.7038C110.999 43.1087 110.528 42.6406 109.931 42.3029C109.342 41.9652 108.652 41.7946 107.86 41.7946C107.105 41.7946 106.429 41.9685 105.836 42.3196C105.246 42.664 104.769 43.1387 104.401 43.7406C104.043 44.3391 103.821 45.0078 103.738 45.7467ZM114.965 49.1905H103.844C104.02 50.4176 104.567 51.3471 105.481 51.979C106.396 52.611 107.493 52.9253 108.772 52.9253C109.544 52.9253 110.19 52.8149 110.71 52.5909C111.234 52.3702 111.936 52.0259 112.814 51.5578C113.693 51.083 114.312 50.8489 114.673 50.8489C115.223 50.8489 115.714 51.083 116.151 51.5511C116.595 52.0125 116.814 52.5173 116.814 53.069C116.814 53.7812 116.38 54.48 115.515 55.1654C114.647 55.8442 113.547 56.3958 112.215 56.8238C110.889 57.2451 109.584 57.4557 108.304 57.4557C106.386 57.4557 104.686 57.0278 103.198 56.1752C101.71 55.3226 100.557 54.1356 99.7386 52.6177C98.9234 51.0997 98.5191 49.3978 98.5191 47.5154C98.5191 46.2014 98.7444 44.9409 99.2017 43.7372C99.6557 42.5336 100.299 41.4636 101.13 40.5274C101.962 39.5913 102.959 38.8523 104.119 38.3107C105.282 37.7657 106.528 37.4949 107.86 37.4949C109.647 37.4949 111.257 37.9663 112.692 38.9058C114.13 39.8487 115.247 41.0524 116.045 42.5269C116.847 43.9947 117.248 45.4525 117.248 46.9002C117.248 48.4249 116.486 49.1905 114.965 49.1905ZM78.8755 34.5091V51.317H82.736C84.3232 51.317 85.652 50.9559 86.729 50.2337C87.8125 49.5115 88.6145 48.5218 89.1347 47.2613C89.6583 46.0008 89.9167 44.5898 89.9167 43.0251C89.9167 41.3366 89.645 39.8554 89.1049 38.5815C88.5714 37.3009 87.733 36.3046 86.5964 35.589C85.4631 34.8668 84.0515 34.5057 82.3516 34.5057H78.8755V34.5091ZM73.1494 53.7478V32.1586C73.1494 31.2792 73.4245 30.5671 73.9712 30.0221C74.5246 29.4704 75.2304 29.1929 76.0887 29.1929H82.441C84.5485 29.1929 86.444 29.5272 88.1207 30.1892C89.8041 30.8479 91.219 31.7941 92.3656 33.0212C93.5088 34.2516 94.3803 35.7395 94.9768 37.4915C95.5799 39.2368 95.8814 41.1727 95.8814 43.2992C95.8814 45.2953 95.5732 47.1175 94.9569 48.7659C94.3472 50.4109 93.4624 51.8219 92.2993 53.0022C91.1428 54.1824 89.7577 55.0818 88.1472 55.7037C86.5368 56.3256 84.7606 56.6366 82.8221 56.6366H76.1616C75.4027 56.6366 74.7102 56.4059 74.0806 55.9411C73.4609 55.4697 73.1494 54.7375 73.1494 53.7478Z" fill="#FF0016"/>
<path d="M55.8024 39.682L39.1339 24.8932C37.7874 23.7023 35.7611 23.7023 34.4146 24.8932L17.7461 39.682C17.3062 40.0775 17.0396 40.6196 17.004 41.2106C16.9685 41.8016 17.1685 42.3749 17.5595 42.8193C18.2127 43.5569 19.2526 43.7524 20.1102 43.3792V57.3192C20.1102 59.2833 21.7055 60.8742 23.6652 60.8742H30.3308C32.2905 60.8742 33.8858 59.2833 33.8858 57.3192V47.543H39.6627V57.3192C39.6627 59.2833 41.258 60.8742 43.2177 60.8742H49.8833C51.843 60.8742 53.4383 59.2833 53.4383 57.3192V43.3792C54.2959 43.7524 55.3358 43.5569 55.989 42.8193C56.3845 42.3749 56.58 41.8061 56.5445 41.2106C56.5089 40.6196 56.2467 40.0775 55.8024 39.682ZM40.5514 43.0992H32.9971C31.0374 43.0992 29.4421 44.6945 29.4421 46.6542V56.4304H24.554V39.5842L36.7743 28.7415L48.9946 39.5842V56.4304H44.1064V46.6542C44.1064 44.6945 42.5111 43.0992 40.5514 43.0992Z" fill="#FF0016"/>
</svg>
