<svg width="0" height="0" class="hidden">
  <symbol fill="none" xmlns="http://www.w3.org/2000/svg" viewBox="0 0 40 37" id="home">
    <path d="M38.8024 15.682L22.1339 0.893193C20.7874 -0.297731 18.7611 -0.297731 17.4146 0.893193L0.746149 15.682C0.306218 16.0775 0.0395938 16.6196 0.00404383 17.2106C-0.0315061 17.8016 0.168462 18.3749 0.559512 18.8193C1.21274 19.5569 2.25258 19.7524 3.11022 19.3792V33.3192C3.11022 35.2833 4.70553 36.8742 6.66522 36.8742H13.3308C15.2905 36.8742 16.8858 35.2833 16.8858 33.3192V23.543H22.6627V33.3192C22.6627 35.2833 24.258 36.8742 26.2177 36.8742H32.8833C34.843 36.8742 36.4383 35.2833 36.4383 33.3192V19.3792C37.2959 19.7524 38.3358 19.5569 38.989 18.8193C39.3845 18.3749 39.58 17.8061 39.5445 17.2106C39.5089 16.6196 39.2468 16.0775 38.8024 15.682ZM23.5514 19.0992H15.9971C14.0374 19.0992 12.4421 20.6945 12.4421 22.6542V32.4304H7.55397V15.5842L19.7743 4.74147L31.9946 15.5842V32.4304H27.1064V22.6542C27.1064 20.6945 25.5111 19.0992 23.5514 19.0992Z" fill="#FF0016"></path>
  </symbol>

  <symbol fill="none" xmlns="http://www.w3.org/2000/svg" viewBox="0 0 131 32" id="logo">
    <path fill-rule="evenodd" clip-rule="evenodd" d="M89.3145 24.253C89.3145 26.4832 90.4842 27.2455 92.6713 27.2455C94.8583 27.2455 94.7523 29.2683 94.7523 29.2683C94.7523 31.6055 92.542 32 92.542 32H89.9408C84.0325 32 84.1849 24.8683 84.1849 24.8683L84.1716 3.25232C84.1716 2.39303 84.4102 1.70092 84.8841 1.17598C85.3646 0.644362 85.9809 0.380223 86.7331 0.37688C87.4853 0.37688 88.0984 0.644362 88.5755 1.17598C89.056 1.70092 89.2946 2.39303 89.2979 3.25232V23.5175L89.3145 24.253ZM112.212 23.9588L117.809 17.9973L113.13 13.079C112.57 12.4637 112.288 11.8418 112.288 11.2133C112.288 10.5479 112.58 9.96279 113.17 9.46126C113.756 8.95973 114.409 8.70896 115.125 8.70896C115.894 8.70896 116.57 9.04331 117.156 9.70868L121.033 14.2325L124.91 9.70868C125.497 9.04331 126.173 8.70896 126.942 8.70896C127.657 8.70896 128.31 8.95973 128.897 9.46126C129.483 9.96279 129.775 10.5479 129.778 11.2133C129.778 11.8452 129.496 12.4671 128.936 13.079L124.257 17.9973L129.854 23.9588C130.365 24.4804 130.62 25.0655 130.623 25.7209C130.623 26.4731 130.371 27.0817 129.864 27.5431C129.357 28.0045 128.704 28.2352 127.899 28.2352C127.362 28.2352 126.935 28.1449 126.617 27.9644C126.305 27.7771 125.964 27.4862 125.596 27.0884L121.037 21.8457L116.477 27.0884C116.109 27.4862 115.768 27.7771 115.456 27.9644C115.151 28.1449 114.724 28.2352 114.174 28.2352C113.369 28.2352 112.713 28.0045 112.209 27.5431C111.702 27.0817 111.45 26.4731 111.45 25.7209C111.447 25.0655 111.702 24.4804 112.212 23.9588ZM92.6282 20.9095V11.5744C92.6282 10.7218 92.8701 10.033 93.3539 9.50472C93.8443 8.9731 94.4739 8.70896 95.2394 8.70562C96.0049 8.70562 96.6311 8.9731 97.1183 9.50472C97.6087 10.0297 97.8539 10.7218 97.8539 11.5744V20.8059C97.8539 21.8357 98.1853 22.6515 98.8447 23.25C99.5041 23.8451 100.299 24.1427 101.227 24.1427C102.142 24.1427 102.93 23.8418 103.59 23.24C104.256 22.6381 104.591 21.8256 104.591 20.8025V11.5744C104.591 10.7218 104.833 10.033 105.316 9.50472C105.807 8.9731 106.436 8.70896 107.202 8.70562C107.967 8.70562 108.594 8.9731 109.081 9.50472C109.571 10.0297 109.816 10.7218 109.816 11.5744V20.9095C109.816 22.4408 109.482 23.7749 108.816 24.9084C108.15 26.0418 107.169 26.9145 105.876 27.5297C104.584 28.1449 103.033 28.4492 101.227 28.4492C98.5001 28.4492 96.3826 27.7738 94.8782 26.423C93.3771 25.0722 92.6282 23.2366 92.6282 20.9095ZM75.7581 25.3664V11.5777C75.7581 10.7251 75.9967 10.0363 76.4706 9.50807C76.9511 8.97644 77.5674 8.7123 78.3196 8.70896C79.0718 8.70896 79.6849 8.97644 80.1621 9.50807C80.6425 10.033 80.8811 10.7251 80.8844 11.5777V25.3664C80.8844 26.2124 80.6425 26.9078 80.1621 27.4428C79.6882 27.9744 79.0718 28.2385 78.3196 28.2419C77.5674 28.2419 76.9511 27.9777 76.4706 27.4428C75.9934 26.9078 75.7581 26.2157 75.7581 25.3664ZM78.3196 1.50031C79.0851 1.50031 79.7545 1.78785 80.3344 2.35959C80.9143 2.92799 81.2026 3.58667 81.2026 4.34231C81.2026 5.15479 80.9176 5.85693 80.3509 6.44539C79.7876 7.03051 79.1116 7.3214 78.3163 7.3214C77.5509 7.3214 76.8782 7.02382 76.3016 6.42867C75.7217 5.82684 75.4334 5.13138 75.4334 4.34231C75.4334 3.60004 75.7217 2.94137 76.3016 2.36962C76.8881 1.79119 77.5608 1.50031 78.3196 1.50031ZM50.4746 25.6172L45.8984 13.2294C45.5272 12.1963 45.3384 11.3804 45.3384 10.782C45.3384 10.2035 45.5902 9.71202 46.0972 9.3108C46.6042 8.90623 47.2504 8.70562 48.039 8.70562C48.6852 8.70562 49.2353 8.89286 49.6859 9.26733C50.1366 9.64181 50.4348 10.1366 50.5839 10.7485L53.6955 20.6186L56.9264 10.9658C57.3704 9.45791 58.2817 8.70562 59.6536 8.70562C61.0321 8.70562 61.9466 9.45791 62.3907 10.9658L65.5486 20.6186L68.7331 10.7485C68.8789 10.1333 69.1771 9.64181 69.6311 9.26733C70.0818 8.89286 70.6318 8.70562 71.278 8.70562C72.0832 8.70562 72.7327 8.92963 73.2265 9.38101C73.7268 9.8257 73.9754 10.4376 73.9787 11.2133C73.9787 11.4373 73.8064 12.0826 73.4584 13.1492L68.8458 25.6139C68.1863 27.3625 67.0994 28.2352 65.5851 28.2352C64.0276 28.2352 62.9904 27.4327 62.4735 25.8245L59.6999 17.4958L56.8435 25.8245C56.3233 27.4327 55.2861 28.2352 53.732 28.2352C52.2209 28.2352 51.134 27.3625 50.4746 25.6172ZM30.7382 16.7468H39.0291C38.9297 15.9811 38.701 15.3024 38.3464 14.7039C37.9985 14.1088 37.528 13.6407 36.9315 13.303C36.3417 12.9653 35.6524 12.7948 34.8604 12.7948C34.1049 12.7948 33.4289 12.9686 32.8358 13.3197C32.2459 13.6641 31.7688 14.1389 31.4009 14.7407C31.0431 15.3392 30.821 16.0079 30.7382 16.7468ZM41.965 20.1906H30.8442C31.0199 21.4177 31.5666 22.3472 32.4812 22.9792C33.3958 23.6111 34.4926 23.9254 35.7717 23.9254C36.5438 23.9254 37.19 23.815 37.7102 23.591C38.2338 23.3703 38.9363 23.026 39.8144 22.5579C40.6926 22.0831 41.3122 21.849 41.6734 21.849C42.2235 21.849 42.7139 22.0831 43.1513 22.5512C43.5954 23.0126 43.8141 23.5175 43.8141 24.0691C43.8141 24.7813 43.38 25.4801 42.5151 26.1655C41.6469 26.8443 40.5467 27.396 39.2146 27.8239C37.8892 28.2452 36.5836 28.4559 35.3045 28.4559C33.3858 28.4559 31.6859 28.0279 30.1981 27.1753C28.7102 26.3227 27.557 25.1357 26.7386 23.6178C25.9234 22.0998 25.5191 20.3979 25.5191 18.5155C25.5191 17.2015 25.7444 15.941 26.2017 14.7373C26.6557 13.5337 27.2986 12.4637 28.1303 11.5276C28.962 10.5914 29.9595 9.85245 31.1193 9.3108C32.2824 8.7658 33.5283 8.49497 34.8604 8.49497C36.6465 8.49497 38.257 8.96641 39.6918 9.90595C41.13 10.8488 42.2467 12.0525 43.0453 13.527C43.8472 14.9948 44.2482 16.4526 44.2482 17.9003C44.2482 19.425 43.486 20.1906 41.965 20.1906ZM5.87549 5.5092V22.3171H9.73595C11.3232 22.3171 12.652 21.956 13.729 21.2338C14.8125 20.5116 15.6145 19.5219 16.1347 18.2614C16.6583 17.0009 16.9167 15.5899 16.9167 14.0252C16.9167 12.3367 16.645 10.8555 16.1049 9.58162C15.5714 8.30105 14.733 7.30468 13.5964 6.58916C12.4631 5.86696 11.0515 5.50586 9.35156 5.50586H5.87549V5.5092ZM0.149414 24.7479V3.1587C0.149414 2.27935 0.424451 1.56718 0.971212 1.02218C1.5246 0.470499 2.23042 0.192986 3.08867 0.192986H9.44103C11.5485 0.192986 13.444 0.527339 15.1207 1.18936C16.8041 1.84803 18.219 2.79425 19.3656 4.02133C20.5088 5.25175 21.3803 6.73962 21.9768 8.49163C22.5799 10.237 22.8814 12.1729 22.8814 14.2993C22.8814 16.2954 22.5732 18.1177 21.9569 19.766C21.3472 21.411 20.4624 22.822 19.2993 24.0023C18.1428 25.1825 16.7577 26.082 15.1472 26.7038C13.5368 27.3257 11.7606 27.6367 9.82211 27.6367H3.16157C2.40273 27.6367 1.71017 27.406 1.08056 26.9412C0.460902 26.4698 0.149414 25.7376 0.149414 24.7479Z" fill="#FF0016"></path>
  </symbol>
</svg>